<svg xmlns="http://www.w3.org/2000/svg" xmlns:xlink="http://www.w3.org/1999/xlink" width="200" zoomAndPan="magnify" viewBox="0 0 150 30.000001" height="40" preserveAspectRatio="xMidYMid meet" version="1.0"><defs><g><g id="id1"/></g></defs><g fill="rgb(0%, 14.509583%, 16.079712%)" fill-opacity="1"><g transform="translate(9.777215, 23.951615)"><g><path d="M 12.859375 -2.96875 C 12.859375 -2.09375 12.914062 -1.101562 13.03125 0 C 11.976562 -0.0390625 10.203125 -0.0625 7.703125 -0.0625 C 4.734375 -0.0625 2.488281 -0.0390625 0.96875 0 L 0.96875 -0.46875 C 1.53125 -0.5 1.9375 -0.5625 2.1875 -0.65625 C 2.445312 -0.75 2.625 -0.925781 2.71875 -1.1875 C 2.8125 -1.445312 2.859375 -1.875 2.859375 -2.46875 L 2.859375 -13.984375 C 2.859375 -14.566406 2.8125 -14.988281 2.71875 -15.25 C 2.625 -15.519531 2.445312 -15.695312 2.1875 -15.78125 C 1.9375 -15.875 1.53125 -15.9375 0.96875 -15.96875 L 0.96875 -16.4375 C 2.488281 -16.394531 4.734375 -16.375 7.703125 -16.375 C 9.984375 -16.375 11.601562 -16.394531 12.5625 -16.4375 C 12.457031 -15.414062 12.40625 -14.503906 12.40625 -13.703125 C 12.40625 -13.097656 12.425781 -12.617188 12.46875 -12.265625 L 11.9375 -12.265625 C 11.820312 -13.265625 11.679688 -14.007812 11.515625 -14.5 C 11.347656 -14.988281 11.0625 -15.34375 10.65625 -15.5625 C 10.25 -15.789062 9.640625 -15.90625 8.828125 -15.90625 L 6.890625 -15.90625 C 6.335938 -15.90625 5.929688 -15.863281 5.671875 -15.78125 C 5.421875 -15.695312 5.25 -15.519531 5.15625 -15.25 C 5.0625 -14.988281 5.015625 -14.566406 5.015625 -13.984375 L 5.015625 -8.5 L 6.546875 -8.5 C 7.085938 -8.5 7.503906 -8.625 7.796875 -8.875 C 8.097656 -9.132812 8.296875 -9.4375 8.390625 -9.78125 C 8.492188 -10.132812 8.578125 -10.570312 8.640625 -11.09375 L 8.703125 -11.5625 L 9.234375 -11.5625 C 9.191406 -10.914062 9.171875 -10.1875 9.171875 -9.375 L 9.171875 -8.265625 C 9.171875 -7.472656 9.21875 -6.375 9.3125 -4.96875 L 8.78125 -4.96875 C 8.757812 -5.070312 8.707031 -5.445312 8.625 -6.09375 C 8.550781 -6.738281 8.335938 -7.222656 7.984375 -7.546875 C 7.640625 -7.867188 7.160156 -8.03125 6.546875 -8.03125 L 5.015625 -8.03125 L 5.015625 -2.46875 C 5.015625 -1.875 5.0625 -1.445312 5.15625 -1.1875 C 5.25 -0.925781 5.421875 -0.75 5.671875 -0.65625 C 5.929688 -0.570312 6.335938 -0.53125 6.890625 -0.53125 L 8.59375 -0.53125 C 9.550781 -0.53125 10.28125 -0.65625 10.78125 -0.90625 C 11.289062 -1.164062 11.660156 -1.578125 11.890625 -2.140625 C 12.117188 -2.710938 12.289062 -3.546875 12.40625 -4.640625 L 12.9375 -4.640625 C 12.882812 -4.222656 12.859375 -3.664062 12.859375 -2.96875 Z M 12.859375 -2.96875 "/></g></g></g><g fill="rgb(0%, 14.509583%, 16.079712%)" fill-opacity="1"><g transform="translate(23.921758, 23.951615)"><g><path d="M 10.3125 -1.65625 C 10.59375 -1.257812 10.828125 -0.976562 11.015625 -0.8125 C 11.210938 -0.65625 11.457031 -0.546875 11.75 -0.484375 L 11.75 0 C 10.945312 -0.0625 10.394531 -0.09375 10.09375 -0.09375 C 9.570312 -0.09375 8.660156 -0.0625 7.359375 0 L 7.359375 -0.484375 C 7.609375 -0.484375 7.820312 -0.53125 8 -0.625 C 8.175781 -0.71875 8.265625 -0.84375 8.265625 -1 C 8.265625 -1.101562 8.234375 -1.195312 8.171875 -1.28125 L 5.53125 -5.125 L 3.828125 -2.921875 C 3.398438 -2.347656 3.1875 -1.882812 3.1875 -1.53125 C 3.1875 -1.207031 3.335938 -0.957031 3.640625 -0.78125 C 3.941406 -0.601562 4.363281 -0.5 4.90625 -0.46875 L 4.90625 0 C 4.09375 -0.0390625 3.207031 -0.0625 2.25 -0.0625 C 1.570312 -0.0625 0.984375 -0.0390625 0.484375 0 L 0.484375 -0.46875 C 0.796875 -0.5 1.109375 -0.632812 1.421875 -0.875 C 1.742188 -1.125 2.113281 -1.53125 2.53125 -2.09375 L 5.203125 -5.59375 L 1.96875 -10.3125 C 1.664062 -10.757812 1.421875 -11.054688 1.234375 -11.203125 C 1.046875 -11.347656 0.8125 -11.4375 0.53125 -11.46875 L 0.53125 -11.953125 C 1.332031 -11.890625 1.882812 -11.859375 2.1875 -11.859375 C 2.707031 -11.859375 3.617188 -11.890625 4.921875 -11.953125 L 4.921875 -11.46875 C 4.671875 -11.46875 4.457031 -11.421875 4.28125 -11.328125 C 4.101562 -11.234375 4.015625 -11.109375 4.015625 -10.953125 C 4.015625 -10.847656 4.046875 -10.757812 4.109375 -10.6875 L 6.59375 -7.0625 L 8.203125 -9.3125 C 8.660156 -9.976562 8.890625 -10.46875 8.890625 -10.78125 C 8.890625 -10.988281 8.785156 -11.148438 8.578125 -11.265625 C 8.367188 -11.390625 8.03125 -11.46875 7.5625 -11.5 L 7.5625 -11.953125 C 8.375 -11.910156 9.023438 -11.890625 9.515625 -11.890625 C 10.203125 -11.890625 10.789062 -11.910156 11.28125 -11.953125 L 11.28125 -11.5 C 10.644531 -11.414062 9.960938 -10.875 9.234375 -9.875 L 6.890625 -6.625 Z M 10.3125 -1.65625 "/></g></g></g><g fill="rgb(0%, 14.509583%, 16.079712%)" fill-opacity="1"><g transform="translate(35.975975, 23.951615)"><g><path d="M 8.078125 -12.28125 C 8.898438 -12.28125 9.640625 -12.054688 10.296875 -11.609375 C 10.953125 -11.160156 11.46875 -10.5 11.84375 -9.625 C 12.21875 -8.757812 12.40625 -7.726562 12.40625 -6.53125 C 12.40625 -5.332031 12.210938 -4.210938 11.828125 -3.171875 C 11.453125 -2.140625 10.863281 -1.296875 10.0625 -0.640625 C 9.269531 0.00390625 8.273438 0.328125 7.078125 0.328125 C 6.492188 0.328125 5.960938 0.210938 5.484375 -0.015625 C 5.003906 -0.253906 4.628906 -0.554688 4.359375 -0.921875 L 4.359375 2.046875 C 4.359375 2.679688 4.546875 3.117188 4.921875 3.359375 C 5.296875 3.597656 5.851562 3.71875 6.59375 3.71875 L 6.59375 4.203125 L 6.0625 4.171875 C 4.625 4.128906 3.6875 4.109375 3.25 4.109375 C 2.875 4.109375 2.039062 4.140625 0.75 4.203125 L 0.75 3.71875 C 1.320312 3.71875 1.71875 3.613281 1.9375 3.40625 C 2.164062 3.195312 2.28125 2.820312 2.28125 2.28125 L 2.28125 -9.421875 C 2.28125 -10.140625 2.144531 -10.660156 1.875 -10.984375 C 1.613281 -11.304688 1.160156 -11.46875 0.515625 -11.46875 L 0.515625 -11.953125 C 0.992188 -11.910156 1.472656 -11.890625 1.953125 -11.890625 C 2.921875 -11.890625 3.722656 -12 4.359375 -12.21875 L 4.359375 -9.75 C 4.703125 -10.550781 5.195312 -11.171875 5.84375 -11.609375 C 6.5 -12.054688 7.242188 -12.28125 8.078125 -12.28125 Z M 6.828125 -0.203125 C 9.035156 -0.203125 10.140625 -2.203125 10.140625 -6.203125 C 10.140625 -9.796875 9.242188 -11.59375 7.453125 -11.59375 C 6.753906 -11.59375 6.125 -11.335938 5.5625 -10.828125 C 5.007812 -10.328125 4.609375 -9.601562 4.359375 -8.65625 L 4.359375 -1.6875 C 4.578125 -1.238281 4.894531 -0.878906 5.3125 -0.609375 C 5.726562 -0.335938 6.234375 -0.203125 6.828125 -0.203125 Z M 6.828125 -0.203125 "/></g></g></g><g fill="rgb(0%, 14.509583%, 16.079712%)" fill-opacity="1"><g transform="translate(49.470198, 23.951615)"><g><path d="M 10.75 -2.78125 C 10.46875 -1.9375 9.941406 -1.207031 9.171875 -0.59375 C 8.410156 0.0195312 7.488281 0.328125 6.40625 0.328125 C 5.3125 0.328125 4.359375 0.078125 3.546875 -0.421875 C 2.742188 -0.929688 2.128906 -1.640625 1.703125 -2.546875 C 1.273438 -3.453125 1.0625 -4.5 1.0625 -5.6875 C 1.0625 -7.03125 1.28125 -8.195312 1.71875 -9.1875 C 2.15625 -10.1875 2.765625 -10.953125 3.546875 -11.484375 C 4.335938 -12.015625 5.257812 -12.28125 6.3125 -12.28125 C 7.707031 -12.28125 8.78125 -11.859375 9.53125 -11.015625 C 10.28125 -10.171875 10.65625 -8.890625 10.65625 -7.171875 L 3.390625 -7.171875 C 3.335938 -6.742188 3.3125 -6.25 3.3125 -5.6875 C 3.3125 -4.664062 3.476562 -3.773438 3.8125 -3.015625 C 4.144531 -2.253906 4.585938 -1.671875 5.140625 -1.265625 C 5.691406 -0.859375 6.269531 -0.65625 6.875 -0.65625 C 7.613281 -0.65625 8.269531 -0.832031 8.84375 -1.1875 C 9.414062 -1.539062 9.894531 -2.132812 10.28125 -2.96875 Z M 6.21875 -11.84375 C 5.488281 -11.84375 4.859375 -11.484375 4.328125 -10.765625 C 3.804688 -10.054688 3.484375 -9.003906 3.359375 -7.609375 L 8.421875 -7.609375 C 8.453125 -8.816406 8.28125 -9.820312 7.90625 -10.625 C 7.53125 -11.4375 6.96875 -11.84375 6.21875 -11.84375 Z M 6.21875 -11.84375 "/></g></g></g><g fill="rgb(0%, 14.509583%, 16.079712%)" fill-opacity="1"><g transform="translate(61.222479, 23.951615)"><g><path d="M 8.46875 -12.28125 C 9.550781 -12.28125 10.375 -11.988281 10.9375 -11.40625 C 11.226562 -11.09375 11.4375 -10.703125 11.5625 -10.234375 C 11.6875 -9.773438 11.75 -9.148438 11.75 -8.359375 L 11.75 -2.15625 C 11.75 -1.519531 11.878906 -1.082031 12.140625 -0.84375 C 12.398438 -0.601562 12.859375 -0.484375 13.515625 -0.484375 L 13.515625 0 C 12.085938 -0.0625 11.160156 -0.09375 10.734375 -0.09375 C 10.296875 -0.09375 9.425781 -0.0625 8.125 0 L 8.125 -0.484375 C 8.695312 -0.484375 9.09375 -0.601562 9.3125 -0.84375 C 9.539062 -1.082031 9.65625 -1.519531 9.65625 -2.15625 L 9.65625 -8.875 C 9.65625 -9.738281 9.53125 -10.398438 9.28125 -10.859375 C 9.039062 -11.316406 8.539062 -11.546875 7.78125 -11.546875 C 7.144531 -11.546875 6.578125 -11.359375 6.078125 -10.984375 C 5.585938 -10.609375 5.207031 -10.097656 4.9375 -9.453125 C 4.664062 -8.816406 4.53125 -8.101562 4.53125 -7.3125 L 4.53125 -2.15625 C 4.53125 -1.519531 4.640625 -1.082031 4.859375 -0.84375 C 5.085938 -0.601562 5.488281 -0.484375 6.0625 -0.484375 L 6.0625 0 C 4.757812 -0.0625 3.890625 -0.09375 3.453125 -0.09375 C 3.023438 -0.09375 2.097656 -0.0625 0.671875 0 L 0.671875 -0.484375 C 1.328125 -0.484375 1.785156 -0.601562 2.046875 -0.84375 C 2.304688 -1.082031 2.4375 -1.519531 2.4375 -2.15625 L 2.4375 -9.421875 C 2.4375 -10.140625 2.304688 -10.660156 2.046875 -10.984375 C 1.785156 -11.304688 1.328125 -11.46875 0.671875 -11.46875 L 0.671875 -11.953125 C 1.171875 -11.910156 1.648438 -11.890625 2.109375 -11.890625 C 3.085938 -11.890625 3.894531 -12 4.53125 -12.21875 L 4.53125 -9.46875 C 4.914062 -10.457031 5.453125 -11.171875 6.140625 -11.609375 C 6.828125 -12.054688 7.601562 -12.28125 8.46875 -12.28125 Z M 8.46875 -12.28125 "/></g></g></g><g fill="rgb(0%, 14.509583%, 16.079712%)" fill-opacity="1"><g transform="translate(75.08831, 23.951615)"><g><path d="M 4.828125 -12.28125 C 5.390625 -12.28125 5.882812 -12.191406 6.3125 -12.015625 C 6.75 -11.847656 7.097656 -11.648438 7.359375 -11.421875 C 7.523438 -11.296875 7.664062 -11.234375 7.78125 -11.234375 C 8.0625 -11.234375 8.226562 -11.578125 8.28125 -12.265625 L 8.828125 -12.265625 C 8.765625 -11.503906 8.734375 -10.1875 8.734375 -8.3125 L 8.203125 -8.3125 C 8.023438 -9.332031 7.691406 -10.175781 7.203125 -10.84375 C 6.722656 -11.507812 6 -11.84375 5.03125 -11.84375 C 4.476562 -11.84375 4.023438 -11.679688 3.671875 -11.359375 C 3.316406 -11.046875 3.140625 -10.609375 3.140625 -10.046875 C 3.140625 -9.503906 3.320312 -9.050781 3.6875 -8.6875 C 4.0625 -8.332031 4.660156 -7.898438 5.484375 -7.390625 C 5.617188 -7.304688 5.828125 -7.171875 6.109375 -6.984375 C 6.816406 -6.523438 7.382812 -6.113281 7.8125 -5.75 C 8.25 -5.394531 8.601562 -4.984375 8.875 -4.515625 C 9.144531 -4.054688 9.28125 -3.523438 9.28125 -2.921875 C 9.28125 -1.898438 8.894531 -1.101562 8.125 -0.53125 C 7.363281 0.0390625 6.425781 0.328125 5.3125 0.328125 C 4.613281 0.328125 4.003906 0.21875 3.484375 0 C 3.140625 -0.164062 2.820312 -0.375 2.53125 -0.625 C 2.46875 -0.6875 2.398438 -0.71875 2.328125 -0.71875 C 2.210938 -0.71875 2.113281 -0.640625 2.03125 -0.484375 C 1.945312 -0.328125 1.878906 -0.113281 1.828125 0.15625 L 1.296875 0.15625 C 1.359375 -0.71875 1.390625 -2.265625 1.390625 -4.484375 L 1.921875 -4.484375 C 2.097656 -3.023438 2.410156 -1.9375 2.859375 -1.21875 C 3.304688 -0.5 4.070312 -0.140625 5.15625 -0.140625 C 5.695312 -0.140625 6.175781 -0.316406 6.59375 -0.671875 C 7.007812 -1.023438 7.21875 -1.582031 7.21875 -2.34375 C 7.21875 -2.945312 7.007812 -3.457031 6.59375 -3.875 C 6.1875 -4.289062 5.519531 -4.796875 4.59375 -5.390625 C 3.832031 -5.867188 3.25 -6.257812 2.84375 -6.5625 C 2.4375 -6.875 2.09375 -7.253906 1.8125 -7.703125 C 1.53125 -8.148438 1.390625 -8.675781 1.390625 -9.28125 C 1.390625 -10.257812 1.710938 -11.003906 2.359375 -11.515625 C 3.015625 -12.023438 3.835938 -12.28125 4.828125 -12.28125 Z M 4.828125 -12.28125 "/></g></g></g><g fill="rgb(0%, 14.509583%, 16.079712%)" fill-opacity="1"><g transform="translate(85.470268, 23.951615)"><g><path d="M 10.75 -2.78125 C 10.46875 -1.9375 9.941406 -1.207031 9.171875 -0.59375 C 8.410156 0.0195312 7.488281 0.328125 6.40625 0.328125 C 5.3125 0.328125 4.359375 0.078125 3.546875 -0.421875 C 2.742188 -0.929688 2.128906 -1.640625 1.703125 -2.546875 C 1.273438 -3.453125 1.0625 -4.5 1.0625 -5.6875 C 1.0625 -7.03125 1.28125 -8.195312 1.71875 -9.1875 C 2.15625 -10.1875 2.765625 -10.953125 3.546875 -11.484375 C 4.335938 -12.015625 5.257812 -12.28125 6.3125 -12.28125 C 7.707031 -12.28125 8.78125 -11.859375 9.53125 -11.015625 C 10.28125 -10.171875 10.65625 -8.890625 10.65625 -7.171875 L 3.390625 -7.171875 C 3.335938 -6.742188 3.3125 -6.25 3.3125 -5.6875 C 3.3125 -4.664062 3.476562 -3.773438 3.8125 -3.015625 C 4.144531 -2.253906 4.585938 -1.671875 5.140625 -1.265625 C 5.691406 -0.859375 6.269531 -0.65625 6.875 -0.65625 C 7.613281 -0.65625 8.269531 -0.832031 8.84375 -1.1875 C 9.414062 -1.539062 9.894531 -2.132812 10.28125 -2.96875 Z M 6.21875 -11.84375 C 5.488281 -11.84375 4.859375 -11.484375 4.328125 -10.765625 C 3.804688 -10.054688 3.484375 -9.003906 3.359375 -7.609375 L 8.421875 -7.609375 C 8.453125 -8.816406 8.28125 -9.820312 7.90625 -10.625 C 7.53125 -11.4375 6.96875 -11.84375 6.21875 -11.84375 Z M 6.21875 -11.84375 "/></g></g></g><g fill="rgb(0%, 14.509583%, 16.079712%)" fill-opacity="1"><g transform="translate(97.22255, 23.951615)"><g><path d="M 3.78125 0.15625 C 2.8125 0.15625 2.085938 -0.0820312 1.609375 -0.5625 C 1.140625 -1.050781 0.90625 -1.726562 0.90625 -2.59375 C 0.90625 -3.289062 1.09375 -3.863281 1.46875 -4.3125 C 1.851562 -4.757812 2.300781 -5.113281 2.8125 -5.375 C 3.332031 -5.644531 4.019531 -5.925781 4.875 -6.21875 C 5.738281 -6.507812 6.378906 -6.78125 6.796875 -7.03125 C 7.222656 -7.28125 7.4375 -7.613281 7.4375 -8.03125 L 7.4375 -9.46875 C 7.4375 -10.363281 7.242188 -10.976562 6.859375 -11.3125 C 6.484375 -11.644531 5.953125 -11.8125 5.265625 -11.8125 C 4.179688 -11.8125 3.414062 -11.535156 2.96875 -10.984375 C 3.28125 -10.898438 3.539062 -10.734375 3.75 -10.484375 C 3.957031 -10.242188 4.0625 -9.9375 4.0625 -9.5625 C 4.0625 -9.175781 3.9375 -8.867188 3.6875 -8.640625 C 3.4375 -8.421875 3.117188 -8.3125 2.734375 -8.3125 C 2.304688 -8.3125 1.984375 -8.445312 1.765625 -8.71875 C 1.546875 -8.988281 1.4375 -9.316406 1.4375 -9.703125 C 1.4375 -10.078125 1.523438 -10.382812 1.703125 -10.625 C 1.878906 -10.875 2.144531 -11.125 2.5 -11.375 C 2.875 -11.632812 3.347656 -11.847656 3.921875 -12.015625 C 4.492188 -12.191406 5.117188 -12.28125 5.796875 -12.28125 C 7.003906 -12.28125 7.921875 -11.992188 8.546875 -11.421875 C 8.929688 -11.066406 9.1875 -10.632812 9.3125 -10.125 C 9.445312 -9.625 9.515625 -8.96875 9.515625 -8.15625 L 9.515625 -1.6875 C 9.515625 -1.300781 9.566406 -1.023438 9.671875 -0.859375 C 9.785156 -0.691406 9.972656 -0.609375 10.234375 -0.609375 C 10.421875 -0.609375 10.59375 -0.648438 10.75 -0.734375 C 10.914062 -0.816406 11.09375 -0.9375 11.28125 -1.09375 L 11.546875 -0.703125 C 11.140625 -0.390625 10.789062 -0.164062 10.5 -0.03125 C 10.21875 0.09375 9.859375 0.15625 9.421875 0.15625 C 8.679688 0.15625 8.164062 -0.0234375 7.875 -0.390625 C 7.582031 -0.765625 7.4375 -1.269531 7.4375 -1.90625 C 6.96875 -1.132812 6.429688 -0.597656 5.828125 -0.296875 C 5.222656 0.00390625 4.539062 0.15625 3.78125 0.15625 Z M 4.8125 -0.765625 C 5.832031 -0.765625 6.707031 -1.351562 7.4375 -2.53125 L 7.4375 -7.078125 C 7.289062 -6.859375 7.09375 -6.679688 6.84375 -6.546875 C 6.601562 -6.410156 6.226562 -6.222656 5.71875 -5.984375 C 5.125 -5.742188 4.644531 -5.507812 4.28125 -5.28125 C 3.914062 -5.0625 3.601562 -4.753906 3.34375 -4.359375 C 3.082031 -3.972656 2.953125 -3.476562 2.953125 -2.875 C 2.953125 -2.175781 3.117188 -1.648438 3.453125 -1.296875 C 3.796875 -0.941406 4.25 -0.765625 4.8125 -0.765625 Z M 4.8125 -0.765625 "/></g></g></g><g fill="rgb(0%, 14.509583%, 16.079712%)" fill-opacity="1"><g transform="translate(108.789027, 23.951615)"><g><path d="M 7.5625 -12.28125 C 8.882812 -12.28125 9.953125 -11.738281 10.765625 -10.65625 C 11.578125 -9.570312 11.984375 -8.007812 11.984375 -5.96875 C 11.984375 -4.625 11.75 -3.476562 11.28125 -2.53125 C 10.820312 -1.582031 10.203125 -0.867188 9.421875 -0.390625 C 8.640625 0.0859375 7.765625 0.328125 6.796875 0.328125 C 6.222656 0.328125 5.671875 0.210938 5.140625 -0.015625 C 4.609375 -0.253906 4.140625 -0.585938 3.734375 -1.015625 L 2.09375 0.375 L 1.6875 0.203125 C 1.800781 -0.179688 1.859375 -0.628906 1.859375 -1.140625 L 1.859375 -15.390625 C 1.859375 -16.109375 1.722656 -16.628906 1.453125 -16.953125 C 1.191406 -17.273438 0.738281 -17.4375 0.09375 -17.4375 L 0.09375 -17.921875 C 0.582031 -17.878906 1.0625 -17.859375 1.53125 -17.859375 C 2.507812 -17.859375 3.316406 -17.96875 3.953125 -18.1875 L 3.953125 -9.796875 C 4.285156 -10.585938 4.773438 -11.195312 5.421875 -11.625 C 6.066406 -12.0625 6.78125 -12.28125 7.5625 -12.28125 Z M 6.625 -0.203125 C 7.65625 -0.203125 8.429688 -0.671875 8.953125 -1.609375 C 9.472656 -2.546875 9.734375 -4 9.734375 -5.96875 C 9.734375 -7.851562 9.5 -9.257812 9.03125 -10.1875 C 8.5625 -11.125 7.847656 -11.59375 6.890625 -11.59375 C 6.242188 -11.59375 5.648438 -11.335938 5.109375 -10.828125 C 4.566406 -10.328125 4.179688 -9.617188 3.953125 -8.703125 L 3.953125 -1.34375 C 4.304688 -0.976562 4.710938 -0.695312 5.171875 -0.5 C 5.640625 -0.300781 6.125 -0.203125 6.625 -0.203125 Z M 6.625 -0.203125 "/></g></g></g><g fill="rgb(0%, 14.509583%, 16.079712%)" fill-opacity="1"><g transform="translate(121.865182, 23.951615)"><g><path d="M 4.359375 -2.15625 C 4.359375 -1.519531 4.488281 -1.082031 4.75 -0.84375 C 5.019531 -0.601562 5.476562 -0.484375 6.125 -0.484375 L 6.125 0 C 4.707031 -0.0625 3.769531 -0.09375 3.3125 -0.09375 C 2.863281 -0.09375 1.929688 -0.0625 0.515625 0 L 0.515625 -0.484375 C 1.160156 -0.484375 1.613281 -0.601562 1.875 -0.84375 C 2.144531 -1.082031 2.28125 -1.519531 2.28125 -2.15625 L 2.28125 -15.421875 C 2.28125 -16.128906 2.144531 -16.644531 1.875 -16.96875 C 1.613281 -17.289062 1.160156 -17.453125 0.515625 -17.453125 L 0.515625 -17.953125 C 0.992188 -17.898438 1.472656 -17.875 1.953125 -17.875 C 2.921875 -17.875 3.722656 -17.984375 4.359375 -18.203125 Z M 4.359375 -2.15625 "/></g></g></g><g fill="rgb(0%, 14.509583%, 16.079712%)" fill-opacity="1"><g transform="translate(128.50778, 23.951615)"><g><path d="M 9.703125 -11.890625 C 10.390625 -11.890625 10.976562 -11.910156 11.46875 -11.953125 L 11.46875 -11.5 C 11.15625 -11.46875 10.878906 -11.328125 10.640625 -11.078125 C 10.398438 -10.828125 10.171875 -10.425781 9.953125 -9.875 L 6.15625 0.109375 L 5.359375 2.140625 C 5.066406 2.898438 4.734375 3.441406 4.359375 3.765625 C 4.128906 3.984375 3.851562 4.132812 3.53125 4.21875 C 3.207031 4.3125 2.878906 4.359375 2.546875 4.359375 C 2.085938 4.359375 1.707031 4.234375 1.40625 3.984375 C 1.113281 3.742188 0.96875 3.40625 0.96875 2.96875 C 0.96875 2.601562 1.078125 2.304688 1.296875 2.078125 C 1.515625 1.847656 1.816406 1.734375 2.203125 1.734375 C 2.546875 1.734375 2.828125 1.832031 3.046875 2.03125 C 3.273438 2.226562 3.390625 2.492188 3.390625 2.828125 C 3.390625 3.296875 3.179688 3.644531 2.765625 3.875 C 2.796875 3.894531 2.84375 3.90625 2.90625 3.90625 C 3.75 3.90625 4.40625 3.300781 4.875 2.09375 L 5.6875 -0.015625 L 1.484375 -10.171875 C 1.222656 -10.691406 0.957031 -11.035156 0.6875 -11.203125 C 0.425781 -11.378906 0.164062 -11.46875 -0.09375 -11.46875 L -0.09375 -11.953125 C 0.570312 -11.859375 1.332031 -11.8125 2.1875 -11.8125 C 2.957031 -11.8125 3.960938 -11.859375 5.203125 -11.953125 L 5.203125 -11.46875 C 4.640625 -11.46875 4.226562 -11.421875 3.96875 -11.328125 C 3.71875 -11.234375 3.59375 -11.007812 3.59375 -10.65625 C 3.59375 -10.332031 3.6875 -9.953125 3.875 -9.515625 L 6.65625 -2.59375 L 9.234375 -9.3125 C 9.410156 -9.769531 9.5 -10.125 9.5 -10.375 C 9.5 -10.726562 9.359375 -10.988281 9.078125 -11.15625 C 8.796875 -11.332031 8.351562 -11.445312 7.75 -11.5 L 7.75 -11.953125 C 8.570312 -11.910156 9.222656 -11.890625 9.703125 -11.890625 Z M 9.703125 -11.890625 "/></g></g></g></svg>